<?xml version="1.0" encoding="UTF-8" standalone="no"?>
<!-- Created with Inkscape (http://www.inkscape.org/) -->

<svg width="80mm" height="80mm" viewBox="0 0 80 80" version="1.1" id="svg1" inkscape:version="1.3.2 (091e20ef0f, 2023-11-25)" sodipodi:docname="SNApp.svg" inkscape:export-filename="SNApp.png" inkscape:export-xdpi="234.84" inkscape:export-ydpi="234.84" xmlns:inkscape="http://www.inkscape.org/namespaces/inkscape" xmlns:sodipodi="http://sodipodi.sourceforge.net/DTD/sodipodi-0.dtd" xmlns="http://www.w3.org/2000/svg" xmlns:svg="http://www.w3.org/2000/svg">
  <sodipodi:namedview id="namedview1" pagecolor="#ffffff" bordercolor="#666666" borderopacity="1.0" inkscape:showpageshadow="2" inkscape:pageopacity="0.0" inkscape:pagecheckerboard="0" inkscape:deskcolor="#d1d1d1" inkscape:document-units="mm" inkscape:zoom="0.66101291" inkscape:cx="290.46331" inkscape:cy="341.89953" inkscape:window-width="1920" inkscape:window-height="988" inkscape:window-x="0" inkscape:window-y="37" inkscape:window-maximized="1" inkscape:current-layer="layer1" />
  <defs id="defs1" />
  <g inkscape:label="Warstwa 1" inkscape:groupmode="layer" id="layer1" transform="translate(-28.04583,-57.943752)">
    <g id="g30" transform="translate(-39.241274,-106.88241)" style="display:inline">
      <path style="display:inline;fill:#deaa87;fill-opacity:1;stroke:none;stroke-width:1.5;stroke-linecap:round;paint-order:fill markers stroke" d="m 128.21019,237.88221 -3.01671,-15.95938 0.3406,-7.54177 -10.36386,-18.19758 0.3406,-7.34715 0.97313,-7.59043 -2.48149,2.04358 -3.98984,3.60059 -0.87582,8.51491 5.83879,6.13073 -3.74656,-2.38417 -9.00147,0.43791 -3.941193,5.30357 -2.38417,6.37401 -0.72985,6.81193 5.303573,5.20626 10.07192,6.32536 0.63254,8.077" id="path13547" />
      <path style="display:inline;fill:#deaa87;fill-opacity:1;stroke:none;stroke-width:1.5;stroke-linecap:round;paint-order:fill markers stroke" d="m 95.075037,215.54882 6.325363,-15.57012 5.06028,-0.77851 6.81193,0.29194 -3.89253,-4.08715 -5.74148,-2.14089 -5.546853,3.11402 -3.50328,4.47641 -1.94626,6.81192 0.0973,4.86567 0.58387,1.75163" id="path13549" />
      <path style="display:inline;fill:#deaa87;fill-opacity:1;stroke:none;stroke-width:1.5;stroke-linecap:round;paint-order:fill markers stroke" d="m 102.86009,193.3614 2.9194,-4.08716 6.32536,-3.79521 3.98985,-4.47641 -0.97314,-2.9194 -4.47641,0.68119 -16.737873,10.80177 -2.62746,11.67759 1.4597,5.1576" id="path13551" />
      <path style="display:inline;fill:#ffffff;fill-opacity:1;stroke:none;stroke-width:1.5;stroke-linecap:round;paint-order:fill markers stroke" d="m 108.89351,179.93217 c 0,0 -0.92447,2.04358 0.3406,2.18955 1.26507,0.14597 2.96806,-0.97313 2.96806,-0.97313 l 2.57879,-2.53015 -5.30357,0.77851" id="path13553" />
      <path style="display:inline;fill:#deaa87;fill-opacity:1;stroke:none;stroke-width:1.5;stroke-linecap:round;paint-order:fill markers stroke" d="m 96.632047,187.32798 -5.1576,-13.81848 -4.28179,-2.04358 -1.36238,1.55701 1.07044,5.35223 1.36239,4.67104 3.6979,19.36533 2.43283,-12.84535" id="path13555" />
      <path style="display:inline;fill:#ffffff;fill-opacity:1;stroke:none;stroke-width:1.5;stroke-linecap:round;paint-order:fill markers stroke" d="m 111.92418,199.77144 c 0,0 -0.27525,4.4727 3.30292,4.95438 3.57816,0.48167 -0.34406,-2.68362 -0.34406,-2.68362" id="path13557" />
      <path style="display:inline;fill:#d38d5f;fill-opacity:1;stroke:none;stroke-width:1.5;stroke-linecap:round;paint-order:fill markers stroke" d="m 87.565127,172.10948 c 0,0 3.50936,3.44054 3.50936,5.43605 0,1.99552 2.75243,12.59239 2.75243,12.59239 l 2.20195,-2.06433 -2.61481,-9.56471 -2.40838,-4.88557 -1.65146,-1.37621" id="path13563" />
      <path style="display:inline;fill:#d38d5f;fill-opacity:1;stroke:none;stroke-width:1.5;stroke-linecap:round;paint-order:fill markers stroke" d="m 109.99747,196.95019 c 0,0 -4.88557,-0.6881 -6.26179,-0.61929 -1.37621,0.0688 -5.848923,4.4727 -7.018703,7.22513 -1.16979,2.75244 -2.06433,11.90428 -2.06433,11.90428 l 5.711303,-14.65671 2.61481,-0.96335 9.42709,-0.82573" id="path13565" />
      <path style="display:inline;fill:#d38d5f;fill-opacity:1;stroke:none;stroke-width:1.5;stroke-linecap:round;paint-order:fill markers stroke" d="m 117.84191,206.44609 c 0,0 -2.82125,-0.48168 -4.47271,-1.16978 -1.65146,-0.68811 -2.61481,-4.33509 -3.57816,-3.50936 -0.96335,0.82573 -3.1653,2.06433 -4.4727,3.71579 -1.30741,1.65146 -2.75244,7.70681 -2.40839,7.22514 0.34406,-0.48168 4.26628,-7.22514 4.26628,-7.22514 l 2.61481,-0.96335 2.95887,2.13313 3.99103,1.37622 1.78908,-0.55049" id="path13567" />
      <path style="display:inline;fill:#d38d5f;fill-opacity:1;stroke:none;stroke-width:1.5;stroke-linecap:round;paint-order:fill markers stroke" d="m 116.46569,183.73851 c 0,0 -3.64697,2.33957 -4.19746,4.12865 -0.55049,1.78908 -1.10097,8.73898 -1.10097,8.73898 l -1.99552,-1.78908 1.10098,-8.8766 5.78011,-4.88557" id="path13569" />
      <path style="display:inline;fill:#d38d5f;fill-opacity:1;stroke:none;stroke-width:1.5;stroke-linecap:round;paint-order:fill markers stroke" d="m 115.50234,179.33462 c 0,0 -3.64697,3.78459 -5.98654,4.61032 -2.33957,0.82573 -3.50936,-0.55048 -3.50936,-0.55048 l -10.940923,7.70681 -1.37622,7.63801 -0.89454,6.3994 -0.82573,-3.09648 2.27076,-12.79882 13.555743,-9.22066 0.13762,2.33957 2.546,0.0688 4.05984,-3.92223" id="path13571" />
      <path style="display:inline;fill:#d38d5f;fill-opacity:1;stroke:none;stroke-width:1.5;stroke-linecap:round;paint-order:fill markers stroke" d="m 105.7312,208.23517 c 0,0 2.47719,4.19747 1.72027,5.43606 -0.75692,1.2386 1.2386,3.23411 1.2386,3.23411 l 7.22513,3.50935 -6.74346,-5.84892 -0.27524,-3.02768 -2.61481,-4.95438" id="path13573" />
      <path style="display:inline;fill:#d38d5f;fill-opacity:1;stroke:none;stroke-width:1.5;stroke-linecap:round;paint-order:fill markers stroke" d="m 124.1037,225.78194 1.9267,12.52358 2.546,-0.34407 -3.50935,-15.13838" id="path13575" />
      <path style="fill:none;stroke:#000000;stroke-width:1.5;stroke-linecap:round;paint-order:fill markers stroke" d="m 110.92552,237.30958 c 0,0 0.12932,-6.6232 -0.64657,-7.92187 -0.7759,-1.29866 -16.423143,-8.31146 -15.259303,-13.89573 1.16384,-5.58426 4.26743,-15.71386 8.146913,-16.10345 3.87948,-0.38961 7.62965,-0.38961 9.31076,0.25972 1.6811,0.64934 8.01759,8.1816 4.914,8.31147 -3.10358,0.12987 -6.4658,-2.3376 -6.85375,-3.37653 -0.38794,-1.03893 -3.62085,1.1688 -3.62085,1.1688 l -4.13811,7.0128" id="path13577" />
      <path style="fill:none;stroke:#000000;stroke-width:1.5;stroke-linecap:round;paint-order:fill markers stroke" d="m 102.90793,192.89519 c 0,0 0.90521,-2.46747 3.36222,-4.02586 2.457,-1.5584 12.28501,-7.79201 8.9228,-10.38933 -3.36221,-2.59734 -20.949203,11.16853 -20.949203,11.16853 l -2.38386,11.04559 0.44675,4.67416" id="path13579" sodipodi:nodetypes="cssccc" />
      <path style="fill:none;stroke:#000000;stroke-width:1.5;stroke-linecap:round;paint-order:fill markers stroke" d="m 96.054187,187.70053 c 0,0 -3.36222,-16.88266 -8.14693,-15.9736 -4.78468,0.90907 0.64659,8.5712 0.64659,10.77893 0,2.20773 3.36614,21.7511 3.36614,21.7511" id="path13581" sodipodi:nodetypes="cssc" />
      <path style="fill:none;stroke:#000000;stroke-width:1.5;stroke-linecap:round;paint-order:fill markers stroke" d="m 109.1151,194.58277 1.23438,-8.30974" id="path13583" sodipodi:nodetypes="cc" />
      <path style="fill:none;stroke:#000000;stroke-width:1.5;stroke-linecap:round;paint-order:fill markers stroke" d="m 116.22748,179.25919 c 0,0 0.64658,0.51947 0.51727,2.85707 -0.12932,2.3376 -1.5518,6.36347 -1.5518,7.27253 0,0.90907 0.32395,7.53123 0.32395,7.53123 l 3.03305,4.64299 c 0,0 7.1176,10.94204 6.98828,15.35751 -0.12932,4.41546 -2.97427,12.59706 -2.97427,12.59706" id="path13585" sodipodi:nodetypes="cssccsc" />
      <path style="fill:none;stroke:#000000;stroke-width:1.5;stroke-linecap:round;paint-order:fill markers stroke" d="m 125.02096,221.07625 3.62085,16.88266" id="path13587" />
      <path style="fill:none;stroke:#000000;stroke-width:1.5;stroke-linecap:round;paint-order:fill markers stroke" d="m 106.18548,206.79092 c 0,0 5.6899,5.58427 1.03453,10.25946" id="path13589" />
      <path style="fill:none;stroke:#000000;stroke-width:1.5;stroke-linecap:round;paint-order:fill markers stroke" d="m 109.31624,214.47837 7.20118,5.8388" id="path13591" />
      <path style="fill:none;stroke:#000000;stroke-width:1.5;stroke-linecap:round;paint-order:fill markers stroke" d="m 113.66186,199.49213 c 0,0 -6.22804,-6.81192 -11.48296,-5.83879 -5.254913,0.97313 -14.013113,15.37549 -7.201183,23.93905" id="path13593" />
      <path style="display:inline;fill:#000000;fill-opacity:1;stroke:none;stroke-width:1.5;stroke-linecap:round;paint-order:fill markers stroke" d="m 110.61677,199.77144 c 0,0 0.6193,6.60584 6.3306,5.78011 l -0.48168,-0.82573 c 0,0 -4.67913,-0.55048 -4.54151,-4.95438" id="path13559" />
      <path style="display:inline;fill:#000000;fill-opacity:1;stroke:none;stroke-width:1.5;stroke-linecap:round;paint-order:fill markers stroke" d="m 109.79104,179.54105 c 0,0 -1.44503,2.40838 -0.13762,2.40838 1.3074,0 5.22962,-3.64698 5.22962,-3.64698 0,0 -2.95886,4.61033 -6.05535,4.81676 -3.09649,0.20644 -0.55049,-3.30292 -0.55049,-3.30292" id="path13561" />
    </g>
  </g>
</svg>
