<?xml version="1.0" standalone="no"?>
<!DOCTYPE svg PUBLIC "-//W3C//DTD SVG 20010904//EN"
 "http://www.w3.org/TR/2001/REC-SVG-20010904/DTD/svg10.dtd">
<svg version="1.0" xmlns="http://www.w3.org/2000/svg"
 width="700.000000pt" height="700.000000pt" viewBox="0 0 700.000000 700.000000"
 preserveAspectRatio="xMidYMid meet">
<metadata>
Created by potrace 1.14, written by Peter Selinger 2001-2017
</metadata>
<g transform="translate(0.000000,700.000000) scale(0.100000,-0.100000)"
fill="#000000" stroke="none">
<path d="M1770 6453 c-173 -44 -236 -182 -185 -408 14 -58 50 -161 113 -315
87 -216 92 -230 97 -290 6 -64 17 -162 20 -181 2 -9 6 -40 10 -70 3 -30 8 -67
11 -84 9 -57 13 -80 24 -160 6 -44 13 -89 15 -100 1 -11 6 -36 9 -55 3 -19 8
-51 11 -70 2 -19 7 -46 9 -60 3 -14 14 -86 26 -160 11 -74 25 -155 30 -180 5
-25 11 -63 14 -85 3 -22 10 -65 15 -95 6 -30 12 -68 15 -85 3 -27 59 -355 72
-430 3 -16 7 -45 10 -64 2 -19 10 -42 18 -50 7 -9 16 -33 20 -53 6 -35 23 -62
44 -70 5 -1 1 -50 -8 -108 -17 -102 -21 -358 -6 -435 19 -101 38 -179 46 -190
4 -5 11 -21 15 -35 24 -81 147 -284 180 -296 7 -3 30 -33 51 -67 50 -81 232
-263 363 -360 139 -105 343 -238 591 -387 220 -132 291 -177 303 -194 29 -43
46 -207 48 -496 1 -91 6 -175 10 -188 14 -36 51 -48 91 -27 35 18 150 20 813
10 116 -2 268 -4 338 -4 121 -1 129 -2 134 -22 4 -16 11 -19 32 -15 14 3 51 8
83 12 51 5 57 4 63 -16 9 -27 43 -40 76 -28 46 16 48 40 18 183 -16 73 -31
147 -34 166 -3 19 -10 48 -15 64 -5 17 -12 46 -15 65 -3 19 -8 42 -10 50 -2 8
-7 29 -10 45 -2 17 -7 39 -10 50 -2 11 -15 72 -29 135 -13 63 -34 160 -46 215
-12 55 -24 109 -26 120 -8 42 -13 64 -39 180 -15 66 -29 129 -31 140 -2 11 -9
44 -15 73 -9 47 -7 141 5 160 2 4 7 32 10 62 4 30 8 71 11 90 21 151 -15 331
-112 559 -66 153 -209 431 -324 626 -61 105 -116 199 -123 210 -6 11 -55 88
-110 170 -54 83 -121 185 -150 228 -28 43 -51 90 -52 105 -1 15 -5 99 -8 187
-4 88 -9 194 -11 235 -7 112 -7 202 0 230 3 14 7 34 10 45 2 11 24 99 49 195
24 96 47 193 50 215 4 23 9 52 12 65 11 51 5 231 -10 283 -16 54 -56 107 -82
107 -8 0 -17 7 -21 15 -3 9 -26 30 -52 48 -44 31 -50 32 -141 31 -79 -1 -111
-6 -190 -33 -120 -41 -360 -159 -510 -250 -63 -39 -128 -78 -145 -87 -57 -32
-418 -276 -539 -364 -76 -55 -123 -84 -127 -76 -3 6 -18 63 -33 126 -40 170
-128 469 -156 535 -5 11 -19 49 -31 85 -12 36 -26 69 -31 75 -4 5 -8 15 -8 23
0 7 -30 72 -66 145 -102 205 -193 315 -298 362 -67 31 -110 35 -176 18z m1905
-1505 c-7 -52 -11 -80 -20 -138 -4 -25 -8 -56 -10 -70 -26 -174 -48 -316 -49
-318 -2 -1 -41 16 -87 37 -83 39 -195 75 -274 87 -22 3 -41 7 -42 8 -2 1 19
36 46 77 46 69 123 151 181 191 83 58 246 166 253 167 4 0 5 -18 2 -41z"/>
</g>
</svg>
